<svg width="226" height="226" viewBox="0 0 226 226" fill="none" xmlns="http://www.w3.org/2000/svg">
<path d="M117.784 210.113C114.69 211.9 110.878 211.9 107.784 210.113L31.1817 165.887C28.0877 164.1 26.1817 160.799 26.1817 157.226V68.7735C26.1817 65.2008 28.0877 61.8996 31.1817 60.1132L107.784 15.8867C110.878 14.1004 114.69 14.1004 117.784 15.8867L194.387 60.1132C197.481 61.8996 199.387 65.2008 199.387 68.7735V90.8867V113V157.227C199.387 160.799 197.481 164.1 194.387 165.887L117.784 210.113Z" fill="url(#paint0_linear_164_11)"/>
<path d="M114.779 197.82C114.6 200.295 110.968 200.295 110.789 197.82L105.062 118.466C105.018 117.855 104.697 117.298 104.19 116.954L38.3304 72.3175C36.2765 70.9255 38.0928 67.7797 40.3252 68.8624L111.911 103.58C112.463 103.847 113.106 103.847 113.657 103.58L185.243 68.8624C187.476 67.7797 189.292 70.9255 187.238 72.3175L121.379 116.954C120.872 117.298 120.55 117.855 120.506 118.466L114.779 197.82Z" fill="#EEEEEE"/>
<defs>
<linearGradient id="paint0_linear_164_11" x1="92.8902" y1="231.859" x2="160.847" y2="-49.7953" gradientUnits="userSpaceOnUse">
<stop offset="0.213751" stop-color="#8282EF"/>
<stop offset="1" stop-color="#5EEEC3"/>
</linearGradient>
</defs>
</svg>
